<svg width="37" height="36" viewBox="0 0 37 36" fill="none" xmlns="http://www.w3.org/2000/svg">
<circle cx="18.5" cy="18" r="18" fill="#673AB7"/>
<g clip-path="url(#clip0_2_1397)">
<path d="M21.5056 23.3048L19.0307 25.7796C18.7378 26.0725 18.2629 26.0725 17.97 25.7796L15.4952 23.3048C15.0227 22.8323 15.3573 22.0244 16.0255 22.0244H17.6243L17.6243 18.8743H14.4742V20.4731C14.4742 21.1413 13.6663 21.4759 13.1938 21.0034L10.7189 18.5286C10.426 18.2357 10.426 17.7608 10.7189 17.4679L13.1938 14.993C13.6663 14.5206 14.4742 14.8552 14.4742 15.5234V17.1243H17.6243V13.9742H16.0234C15.3552 13.9742 15.0205 13.1663 15.493 12.6938L17.9679 10.2189C18.2608 9.92604 18.7356 9.92604 19.0285 10.2189L21.5034 12.6938C21.9759 13.1663 21.6413 13.9742 20.9731 13.9742H19.3743V17.1243H22.5244V15.5255C22.5244 14.8573 23.3322 14.5227 23.8047 14.9951L26.2796 17.47C26.5725 17.7629 26.5725 18.2378 26.2796 18.5307L23.8047 21.0055C23.3322 21.478 22.5244 21.1434 22.5244 20.4752V18.8743H19.3743V22.0244H20.9752C21.6434 22.0244 21.978 22.8323 21.5056 23.3048Z" fill="white"/>
</g>
<defs>
<clipPath id="clip0_2_1397">
<rect width="16" height="16" fill="white" transform="translate(10.5 10)"/>
</clipPath>
</defs>
</svg>
