<svg width="37" height="36" viewBox="0 0 37 36" fill="none" xmlns="http://www.w3.org/2000/svg">
<circle cx="18.5" cy="18" r="18" fill="#673AB7"/>
<g clip-path="url(#clip0_2_1373)">
<path d="M26.1271 15.3271L18.8146 10.4521C18.565 10.2986 18.2986 10.2971 18.0467 10.4521L10.7342 15.3271C10.5467 15.4521 10.4307 15.6754 10.4307 15.8986V20.7735C10.4307 20.9967 10.5467 21.22 10.7343 21.345L18.0468 26.2206C18.2964 26.3742 18.5627 26.3756 18.8146 26.2206L26.1271 21.345C26.3146 21.22 26.4307 20.9967 26.4307 20.7735V15.8986C26.4307 15.6754 26.3146 15.4521 26.1271 15.3271ZM19.1182 12.3092L24.5021 15.8986L22.1003 17.5057L19.1182 15.5146V12.3092ZM17.7432 12.3092V15.5146L14.761 17.5057L12.3592 15.8986L17.7432 12.3092ZM11.8057 17.1843L13.5289 18.3361L11.8057 19.4878V17.1843ZM17.7432 24.3629L12.3592 20.7736L14.761 19.1664L17.7432 21.1575V24.3629ZM18.4307 19.9611L16.0021 18.3361L18.4307 16.7111L20.8593 18.3361L18.4307 19.9611ZM19.1182 24.3629V21.1575L22.1003 19.1664L24.5021 20.7736L19.1182 24.3629ZM25.0557 19.4878L23.3324 18.3361L25.0557 17.1843V19.4878Z" fill="white"/>
</g>
<defs>
<clipPath id="clip0_2_1373">
<rect width="16" height="16" fill="white" transform="translate(10.4307 10.3354)"/>
</clipPath>
</defs>
</svg>
