<svg width="37" height="36" viewBox="0 0 37 36" fill="none" xmlns="http://www.w3.org/2000/svg">
<circle cx="18.5" cy="18" r="18" fill="#673AB7"/>
<g clip-path="url(#clip0_2_1381)">
<path d="M20.7062 15.793C22.5732 17.662 22.5476 20.6586 20.7174 22.4989C20.714 22.5027 20.7099 22.5067 20.7062 22.5105L18.6062 24.6105C16.754 26.4627 13.7406 26.4624 11.8887 24.6105C10.0365 22.7586 10.0365 19.7449 11.8887 17.893L13.0482 16.7334C13.3557 16.4259 13.8853 16.6303 13.9012 17.0649C13.9214 17.6187 14.0207 18.1751 14.204 18.7124C14.266 18.8943 14.2217 19.0956 14.0857 19.2315L13.6768 19.6405C12.801 20.5163 12.7735 21.9424 13.6407 22.8267C14.5164 23.7198 15.9559 23.7252 16.8383 22.8427L18.9383 20.743C19.8193 19.862 19.8156 18.4381 18.9383 17.5608C18.8227 17.4454 18.7062 17.3557 18.6152 17.293C18.5508 17.2488 18.4977 17.1902 18.46 17.1218C18.4223 17.0534 18.4011 16.9771 18.3981 16.8991C18.3857 16.5689 18.5027 16.2286 18.7637 15.9677L19.4216 15.3097C19.5941 15.1372 19.8648 15.116 20.0648 15.2556C20.294 15.4156 20.5086 15.5954 20.7062 15.793ZM25.1104 11.3886C23.2585 9.53662 20.2451 9.53637 18.3929 11.3886L16.2929 13.4886C16.2891 13.4923 16.2851 13.4964 16.2816 13.5001C14.4514 15.3405 14.4258 18.337 16.2929 20.2061C16.4905 20.4036 16.705 20.5835 16.9342 20.7434C17.1342 20.8831 17.4049 20.8618 17.5774 20.6893L18.2353 20.0314C18.4963 19.7704 18.6133 19.4302 18.6009 19.0999C18.5979 19.0219 18.5767 18.9456 18.539 18.8772C18.5013 18.8088 18.4482 18.7502 18.3838 18.706C18.2928 18.6433 18.1763 18.5537 18.0607 18.4382C17.1834 17.5609 17.1797 16.137 18.0607 15.256L20.1607 13.1563C21.0431 12.2739 22.4825 12.2792 23.3583 13.1723C24.2255 14.0567 24.1981 15.4827 23.3222 16.3585L22.9132 16.7675C22.7773 16.9034 22.733 17.1047 22.795 17.2866C22.9783 17.8239 23.0776 18.3803 23.0978 18.9342C23.1137 19.3687 23.6433 19.5731 23.9508 19.2656L25.1103 18.106C26.9626 16.2542 26.9626 13.2404 25.1104 11.3886Z" fill="white"/>
</g>
<defs>
<clipPath id="clip0_2_1381">
<rect width="16" height="16" fill="white" transform="translate(10.5 10)"/>
</clipPath>
</defs>
</svg>
