<svg width="37" height="36" viewBox="0 0 37 36" fill="none" xmlns="http://www.w3.org/2000/svg">
<circle cx="18.5" cy="18" r="18" fill="#673AB7"/>
<g clip-path="url(#clip0_2_1389)">
<path d="M26.3727 15.4719C21.9435 11.3752 15.0547 11.3767 10.6272 15.4719C10.4607 15.6259 10.4575 15.8867 10.6185 16.0464L11.4745 16.8957C11.628 17.0482 11.875 17.0514 12.0345 16.9052C15.6825 13.5632 21.317 13.5624 24.9657 16.9052C25.1252 17.0514 25.3722 17.0479 25.5257 16.8957L26.3817 16.0464C26.5425 15.8867 26.5392 15.6259 26.3727 15.4719ZM18.5 20.3999C17.6162 20.3999 16.9 21.1162 16.9 21.9999C16.9 22.8837 17.6162 23.5999 18.5 23.5999C19.3837 23.5999 20.1 22.8837 20.1 21.9999C20.1 21.1162 19.3837 20.3999 18.5 20.3999ZM23.5667 18.3102C20.6852 15.7619 16.3115 15.7647 13.4332 18.3102C13.2607 18.4627 13.2552 18.7274 13.419 18.8889L14.28 19.7387C14.43 19.8867 14.6715 19.8967 14.8312 19.7587C16.93 17.9444 20.0747 17.9484 22.1685 19.7587C22.3282 19.8967 22.5697 19.8869 22.7197 19.7387L23.5807 18.8889C23.7447 18.7274 23.739 18.4624 23.5667 18.3102Z" fill="white"/>
</g>
<defs>
<clipPath id="clip0_2_1389">
<rect width="16" height="16" fill="white" transform="translate(10.5 10)"/>
</clipPath>
</defs>
</svg>
